<svg width="357" height="229" viewBox="0 0 357 229" fill="none" xmlns="http://www.w3.org/2000/svg">
<g filter="url(#filter0_b_2_4)">
<rect width="357" height="229" fill="#F1F1F1"/>
<rect x="5" y="5" width="347" height="219" stroke="black" stroke-width="10"/>
</g>
<path d="M45.2955 64.8409C45.1136 63.0076 44.3333 61.5833 42.9545 60.5682C41.5758 59.553 39.7045 59.0455 37.3409 59.0455C35.7348 59.0455 34.3788 59.2727 33.2727 59.7273C32.1667 60.1667 31.3182 60.7803 30.7273 61.5682C30.1515 62.3561 29.8636 63.25 29.8636 64.25C29.8333 65.0833 30.0076 65.8106 30.3864 66.4318C30.7803 67.053 31.3182 67.5909 32 68.0455C32.6818 68.4848 33.4697 68.8712 34.3636 69.2045C35.2576 69.5227 36.2121 69.7955 37.2273 70.0227L41.4091 71.0227C43.4394 71.4773 45.303 72.0833 47 72.8409C48.697 73.5985 50.1667 74.5303 51.4091 75.6364C52.6515 76.7424 53.6136 78.0455 54.2955 79.5455C54.9924 81.0455 55.3485 82.7652 55.3636 84.7045C55.3485 87.553 54.6212 90.0227 53.1818 92.1136C51.7576 94.1894 49.697 95.803 47 96.9545C44.3182 98.0909 41.0833 98.6591 37.2955 98.6591C33.5379 98.6591 30.2652 98.0833 27.4773 96.9318C24.7045 95.7803 22.5379 94.0758 20.9773 91.8182C19.4318 89.5455 18.6212 86.7348 18.5455 83.3864H28.0682C28.1742 84.947 28.6212 86.25 29.4091 87.2955C30.2121 88.3258 31.2803 89.1061 32.6136 89.6364C33.9621 90.1515 35.4848 90.4091 37.1818 90.4091C38.8485 90.4091 40.2955 90.1667 41.5227 89.6818C42.7652 89.197 43.7273 88.5227 44.4091 87.6591C45.0909 86.7955 45.4318 85.803 45.4318 84.6818C45.4318 83.6364 45.1212 82.7576 44.5 82.0455C43.8939 81.3333 43 80.7273 41.8182 80.2273C40.6515 79.7273 39.2197 79.2727 37.5227 78.8636L32.4545 77.5909C28.5303 76.6364 25.4318 75.1439 23.1591 73.1136C20.8864 71.0833 19.7576 68.3485 19.7727 64.9091C19.7576 62.0909 20.5076 59.6288 22.0227 57.5227C23.553 55.4167 25.6515 53.7727 28.3182 52.5909C30.9848 51.4091 34.0152 50.8182 37.4091 50.8182C40.8636 50.8182 43.8788 51.4091 46.4545 52.5909C49.0455 53.7727 51.0606 55.4167 52.5 57.5227C53.9394 59.6288 54.6818 62.0682 54.7273 64.8409H45.2955ZM70.5739 87.9545L70.5966 76.3409H72.0057L83.1875 63.0909H94.3011L79.2784 80.6364H76.983L70.5739 87.9545ZM61.8011 98V51.4545H71.483V98H61.8011ZM83.6193 98L73.3466 82.7955L79.8011 75.9545L94.9602 98H83.6193ZM113.523 98.6818C109.932 98.6818 106.841 97.9545 104.25 96.5C101.674 95.0303 99.6894 92.9545 98.2955 90.2727C96.9015 87.5758 96.2045 84.3864 96.2045 80.7045C96.2045 77.1136 96.9015 73.9621 98.2955 71.25C99.6894 68.5379 101.652 66.4242 104.182 64.9091C106.727 63.3939 109.712 62.6364 113.136 62.6364C115.439 62.6364 117.583 63.0076 119.568 63.75C121.568 64.4773 123.311 65.5758 124.795 67.0455C126.295 68.5152 127.462 70.3636 128.295 72.5909C129.129 74.803 129.545 77.3939 129.545 80.3636V83.0227H100.068V77.0227H120.432C120.432 75.6288 120.129 74.3939 119.523 73.3182C118.917 72.2424 118.076 71.4015 117 70.7955C115.939 70.1742 114.705 69.8636 113.295 69.8636C111.826 69.8636 110.523 70.2045 109.386 70.8864C108.265 71.553 107.386 72.4545 106.75 73.5909C106.114 74.7121 105.788 75.9621 105.773 77.3409V83.0455C105.773 84.7727 106.091 86.2652 106.727 87.5227C107.379 88.7803 108.295 89.75 109.477 90.4318C110.659 91.1136 112.061 91.4545 113.682 91.4545C114.758 91.4545 115.742 91.303 116.636 91C117.53 90.697 118.295 90.2424 118.932 89.6364C119.568 89.0303 120.053 88.2879 120.386 87.4091L129.341 88C128.886 90.1515 127.955 92.0303 126.545 93.6364C125.152 95.2273 123.348 96.4697 121.136 97.3636C118.939 98.2424 116.402 98.6818 113.523 98.6818ZM135.864 111.091V63.0909H145.409V68.9545H145.841C146.265 68.0152 146.879 67.0606 147.682 66.0909C148.5 65.1061 149.561 64.2879 150.864 63.6364C152.182 62.9697 153.818 62.6364 155.773 62.6364C158.318 62.6364 160.667 63.303 162.818 64.6364C164.97 65.9545 166.689 67.947 167.977 70.6136C169.265 73.2652 169.909 76.5909 169.909 80.5909C169.909 84.4848 169.28 87.7727 168.023 90.4545C166.78 93.1212 165.083 95.1439 162.932 96.5227C160.795 97.8864 158.402 98.5682 155.75 98.5682C153.871 98.5682 152.273 98.2576 150.955 97.6364C149.652 97.0152 148.583 96.2348 147.75 95.2955C146.917 94.3409 146.28 93.3788 145.841 92.4091H145.545V111.091H135.864ZM145.341 80.5455C145.341 82.6212 145.629 84.4318 146.205 85.9773C146.78 87.5227 147.614 88.7273 148.705 89.5909C149.795 90.4394 151.121 90.8636 152.682 90.8636C154.258 90.8636 155.591 90.4318 156.682 89.5682C157.773 88.6894 158.598 87.4773 159.159 85.9318C159.735 84.3712 160.023 82.5758 160.023 80.5455C160.023 78.5303 159.742 76.7576 159.182 75.2273C158.621 73.697 157.795 72.5 156.705 71.6364C155.614 70.7727 154.273 70.3409 152.682 70.3409C151.106 70.3409 149.773 70.7576 148.682 71.5909C147.606 72.4242 146.78 73.6061 146.205 75.1364C145.629 76.6667 145.341 78.4697 145.341 80.5455ZM207.085 98.6818C203.494 98.6818 200.403 97.9545 197.812 96.5C195.237 95.0303 193.252 92.9545 191.858 90.2727C190.464 87.5758 189.767 84.3864 189.767 80.7045C189.767 77.1136 190.464 73.9621 191.858 71.25C193.252 68.5379 195.214 66.4242 197.744 64.9091C200.29 63.3939 203.275 62.6364 206.699 62.6364C209.002 62.6364 211.146 63.0076 213.131 63.75C215.131 64.4773 216.873 65.5758 218.358 67.0455C219.858 68.5152 221.025 70.3636 221.858 72.5909C222.691 74.803 223.108 77.3939 223.108 80.3636V83.0227H193.631V77.0227H213.994C213.994 75.6288 213.691 74.3939 213.085 73.3182C212.479 72.2424 211.638 71.4015 210.562 70.7955C209.502 70.1742 208.267 69.8636 206.858 69.8636C205.388 69.8636 204.085 70.2045 202.949 70.8864C201.828 71.553 200.949 72.4545 200.312 73.5909C199.676 74.7121 199.35 75.9621 199.335 77.3409V83.0455C199.335 84.7727 199.653 86.2652 200.29 87.5227C200.941 88.7803 201.858 89.75 203.04 90.4318C204.222 91.1136 205.623 91.4545 207.244 91.4545C208.32 91.4545 209.305 91.303 210.199 91C211.093 90.697 211.858 90.2424 212.494 89.6364C213.131 89.0303 213.616 88.2879 213.949 87.4091L222.903 88C222.449 90.1515 221.517 92.0303 220.108 93.6364C218.714 95.2273 216.911 96.4697 214.699 97.3636C212.502 98.2424 209.964 98.6818 207.085 98.6818ZM202.994 58.5909L207.812 48.25H216.767L209.835 58.5909H202.994ZM36.5455 175H20.0455V128.455H36.6818C41.3636 128.455 45.3939 129.386 48.7727 131.25C52.1515 133.098 54.75 135.758 56.5682 139.227C58.4015 142.697 59.3182 146.848 59.3182 151.682C59.3182 156.53 58.4015 160.697 56.5682 164.182C54.75 167.667 52.1364 170.341 48.7273 172.205C45.3333 174.068 41.2727 175 36.5455 175ZM29.8864 166.568H36.1364C39.0455 166.568 41.4924 166.053 43.4773 165.023C45.4773 163.977 46.9773 162.364 47.9773 160.182C48.9924 157.985 49.5 155.152 49.5 151.682C49.5 148.242 48.9924 145.432 47.9773 143.25C46.9773 141.068 45.4848 139.462 43.5 138.432C41.5152 137.402 39.0682 136.886 36.1591 136.886H29.8864V166.568ZM82.3352 175.682C78.7443 175.682 75.6534 174.955 73.0625 173.5C70.4867 172.03 68.5019 169.955 67.108 167.273C65.714 164.576 65.017 161.386 65.017 157.705C65.017 154.114 65.714 150.962 67.108 148.25C68.5019 145.538 70.464 143.424 72.9943 141.909C75.5398 140.394 78.5246 139.636 81.9489 139.636C84.2519 139.636 86.3958 140.008 88.3807 140.75C90.3807 141.477 92.1231 142.576 93.608 144.045C95.108 145.515 96.2746 147.364 97.108 149.591C97.9413 151.803 98.358 154.394 98.358 157.364V160.023H68.8807V154.023H89.2443C89.2443 152.629 88.9413 151.394 88.3352 150.318C87.7292 149.242 86.8883 148.402 85.8125 147.795C84.7519 147.174 83.517 146.864 82.108 146.864C80.6383 146.864 79.3352 147.205 78.1989 147.886C77.0777 148.553 76.1989 149.455 75.5625 150.591C74.9261 151.712 74.6004 152.962 74.5852 154.341V160.045C74.5852 161.773 74.9034 163.265 75.5398 164.523C76.1913 165.78 77.108 166.75 78.2898 167.432C79.4716 168.114 80.8731 168.455 82.4943 168.455C83.5701 168.455 84.5549 168.303 85.4489 168C86.3428 167.697 87.108 167.242 87.7443 166.636C88.3807 166.03 88.8655 165.288 89.1989 164.409L98.1534 165C97.6989 167.152 96.767 169.03 95.358 170.636C93.964 172.227 92.161 173.47 89.9489 174.364C87.7519 175.242 85.214 175.682 82.3352 175.682ZM136.284 140.091L124.08 175H113.17L100.966 140.091H111.193L118.443 165.068H118.807L126.034 140.091H136.284ZM156.023 175.682C152.432 175.682 149.341 174.955 146.75 173.5C144.174 172.03 142.189 169.955 140.795 167.273C139.402 164.576 138.705 161.386 138.705 157.705C138.705 154.114 139.402 150.962 140.795 148.25C142.189 145.538 144.152 143.424 146.682 141.909C149.227 140.394 152.212 139.636 155.636 139.636C157.939 139.636 160.083 140.008 162.068 140.75C164.068 141.477 165.811 142.576 167.295 144.045C168.795 145.515 169.962 147.364 170.795 149.591C171.629 151.803 172.045 154.394 172.045 157.364V160.023H142.568V154.023H162.932C162.932 152.629 162.629 151.394 162.023 150.318C161.417 149.242 160.576 148.402 159.5 147.795C158.439 147.174 157.205 146.864 155.795 146.864C154.326 146.864 153.023 147.205 151.886 147.886C150.765 148.553 149.886 149.455 149.25 150.591C148.614 151.712 148.288 152.962 148.273 154.341V160.045C148.273 161.773 148.591 163.265 149.227 164.523C149.879 165.78 150.795 166.75 151.977 167.432C153.159 168.114 154.561 168.455 156.182 168.455C157.258 168.455 158.242 168.303 159.136 168C160.03 167.697 160.795 167.242 161.432 166.636C162.068 166.03 162.553 165.288 162.886 164.409L171.841 165C171.386 167.152 170.455 169.03 169.045 170.636C167.652 172.227 165.848 173.47 163.636 174.364C161.439 175.242 158.902 175.682 156.023 175.682ZM188.045 128.455V175H178.364V128.455H188.045ZM211.574 175.682C208.044 175.682 204.991 174.932 202.415 173.432C199.854 171.917 197.877 169.811 196.483 167.114C195.089 164.402 194.392 161.258 194.392 157.682C194.392 154.076 195.089 150.924 196.483 148.227C197.877 145.515 199.854 143.409 202.415 141.909C204.991 140.394 208.044 139.636 211.574 139.636C215.104 139.636 218.15 140.394 220.71 141.909C223.286 143.409 225.271 145.515 226.665 148.227C228.059 150.924 228.756 154.076 228.756 157.682C228.756 161.258 228.059 164.402 226.665 167.114C225.271 169.811 223.286 171.917 220.71 173.432C218.15 174.932 215.104 175.682 211.574 175.682ZM211.619 168.182C213.225 168.182 214.566 167.727 215.642 166.818C216.718 165.894 217.528 164.636 218.074 163.045C218.634 161.455 218.915 159.644 218.915 157.614C218.915 155.583 218.634 153.773 218.074 152.182C217.528 150.591 216.718 149.333 215.642 148.409C214.566 147.485 213.225 147.023 211.619 147.023C209.998 147.023 208.634 147.485 207.528 148.409C206.438 149.333 205.612 150.591 205.051 152.182C204.506 153.773 204.233 155.583 204.233 157.614C204.233 159.644 204.506 161.455 205.051 163.045C205.612 164.636 206.438 165.894 207.528 166.818C208.634 167.727 209.998 168.182 211.619 168.182ZM235.051 188.091V140.091H244.597V145.955H245.028C245.453 145.015 246.066 144.061 246.869 143.091C247.688 142.106 248.748 141.288 250.051 140.636C251.369 139.97 253.006 139.636 254.96 139.636C257.506 139.636 259.854 140.303 262.006 141.636C264.157 142.955 265.877 144.947 267.165 147.614C268.453 150.265 269.097 153.591 269.097 157.591C269.097 161.485 268.468 164.773 267.21 167.455C265.968 170.121 264.271 172.144 262.119 173.523C259.983 174.886 257.589 175.568 254.938 175.568C253.059 175.568 251.46 175.258 250.142 174.636C248.839 174.015 247.771 173.235 246.938 172.295C246.104 171.341 245.468 170.379 245.028 169.409H244.733V188.091H235.051ZM244.528 157.545C244.528 159.621 244.816 161.432 245.392 162.977C245.968 164.523 246.801 165.727 247.892 166.591C248.983 167.439 250.309 167.864 251.869 167.864C253.445 167.864 254.778 167.432 255.869 166.568C256.96 165.689 257.786 164.477 258.347 162.932C258.922 161.371 259.21 159.576 259.21 157.545C259.21 155.53 258.93 153.758 258.369 152.227C257.809 150.697 256.983 149.5 255.892 148.636C254.801 147.773 253.46 147.341 251.869 147.341C250.294 147.341 248.96 147.758 247.869 148.591C246.794 149.424 245.968 150.606 245.392 152.136C244.816 153.667 244.528 155.47 244.528 157.545ZM291.46 175.682C287.869 175.682 284.778 174.955 282.188 173.5C279.612 172.03 277.627 169.955 276.233 167.273C274.839 164.576 274.142 161.386 274.142 157.705C274.142 154.114 274.839 150.962 276.233 148.25C277.627 145.538 279.589 143.424 282.119 141.909C284.665 140.394 287.65 139.636 291.074 139.636C293.377 139.636 295.521 140.008 297.506 140.75C299.506 141.477 301.248 142.576 302.733 144.045C304.233 145.515 305.4 147.364 306.233 149.591C307.066 151.803 307.483 154.394 307.483 157.364V160.023H278.006V154.023H298.369C298.369 152.629 298.066 151.394 297.46 150.318C296.854 149.242 296.013 148.402 294.938 147.795C293.877 147.174 292.642 146.864 291.233 146.864C289.763 146.864 288.46 147.205 287.324 147.886C286.203 148.553 285.324 149.455 284.688 150.591C284.051 151.712 283.725 152.962 283.71 154.341V160.045C283.71 161.773 284.028 163.265 284.665 164.523C285.316 165.78 286.233 166.75 287.415 167.432C288.597 168.114 289.998 168.455 291.619 168.455C292.695 168.455 293.68 168.303 294.574 168C295.468 167.697 296.233 167.242 296.869 166.636C297.506 166.03 297.991 165.288 298.324 164.409L307.278 165C306.824 167.152 305.892 169.03 304.483 170.636C303.089 172.227 301.286 173.47 299.074 174.364C296.877 175.242 294.339 175.682 291.46 175.682ZM313.801 175V140.091H323.188V146.182H323.551C324.188 144.015 325.256 142.379 326.756 141.273C328.256 140.152 329.983 139.591 331.938 139.591C332.422 139.591 332.945 139.621 333.506 139.682C334.066 139.742 334.559 139.826 334.983 139.932V148.523C334.528 148.386 333.9 148.265 333.097 148.159C332.294 148.053 331.559 148 330.892 148C329.468 148 328.195 148.311 327.074 148.932C325.968 149.538 325.089 150.386 324.438 151.477C323.801 152.568 323.483 153.826 323.483 155.25V175H313.801Z" fill="black"/>
<defs>
<filter id="filter0_b_2_4" x="-4" y="-4" width="365" height="237" filterUnits="userSpaceOnUse" color-interpolation-filters="sRGB">
<feFlood flood-opacity="0" result="BackgroundImageFix"/>
<feGaussianBlur in="BackgroundImage" stdDeviation="2"/>
<feComposite in2="SourceAlpha" operator="in" result="effect1_backgroundBlur_2_4"/>
<feBlend mode="normal" in="SourceGraphic" in2="effect1_backgroundBlur_2_4" result="shape"/>
</filter>
</defs>
</svg>
