<svg width="357" height="238" viewBox="0 0 357 238" fill="none" xmlns="http://www.w3.org/2000/svg">
<g filter="url(#filter0_b_2_44)">
<rect x="5" y="14" width="347" height="219" stroke="black" stroke-width="10"/>
</g>
<path d="M45.2955 73.8409C45.1136 72.0076 44.3333 70.5833 42.9545 69.5682C41.5758 68.553 39.7045 68.0455 37.3409 68.0455C35.7348 68.0455 34.3788 68.2727 33.2727 68.7273C32.1667 69.1667 31.3182 69.7803 30.7273 70.5682C30.1515 71.3561 29.8636 72.25 29.8636 73.25C29.8333 74.0833 30.0076 74.8106 30.3864 75.4318C30.7803 76.053 31.3182 76.5909 32 77.0455C32.6818 77.4848 33.4697 77.8712 34.3636 78.2045C35.2576 78.5227 36.2121 78.7955 37.2273 79.0227L41.4091 80.0227C43.4394 80.4773 45.303 81.0833 47 81.8409C48.697 82.5985 50.1667 83.5303 51.4091 84.6364C52.6515 85.7424 53.6136 87.0455 54.2955 88.5455C54.9924 90.0455 55.3485 91.7652 55.3636 93.7045C55.3485 96.553 54.6212 99.0227 53.1818 101.114C51.7576 103.189 49.697 104.803 47 105.955C44.3182 107.091 41.0833 107.659 37.2955 107.659C33.5379 107.659 30.2652 107.083 27.4773 105.932C24.7045 104.78 22.5379 103.076 20.9773 100.818C19.4318 98.5455 18.6212 95.7348 18.5455 92.3864H28.0682C28.1742 93.947 28.6212 95.25 29.4091 96.2955C30.2121 97.3258 31.2803 98.1061 32.6136 98.6364C33.9621 99.1515 35.4848 99.4091 37.1818 99.4091C38.8485 99.4091 40.2955 99.1667 41.5227 98.6818C42.7652 98.197 43.7273 97.5227 44.4091 96.6591C45.0909 95.7955 45.4318 94.803 45.4318 93.6818C45.4318 92.6364 45.1212 91.7576 44.5 91.0455C43.8939 90.3333 43 89.7273 41.8182 89.2273C40.6515 88.7273 39.2197 88.2727 37.5227 87.8636L32.4545 86.5909C28.5303 85.6364 25.4318 84.1439 23.1591 82.1136C20.8864 80.0833 19.7576 77.3485 19.7727 73.9091C19.7576 71.0909 20.5076 68.6288 22.0227 66.5227C23.553 64.4167 25.6515 62.7727 28.3182 61.5909C30.9848 60.4091 34.0152 59.8182 37.4091 59.8182C40.8636 59.8182 43.8788 60.4091 46.4545 61.5909C49.0455 62.7727 51.0606 64.4167 52.5 66.5227C53.9394 68.6288 54.6818 71.0682 54.7273 73.8409H45.2955ZM70.5739 96.9545L70.5966 85.3409H72.0057L83.1875 72.0909H94.3011L79.2784 89.6364H76.983L70.5739 96.9545ZM61.8011 107V60.4545H71.483V107H61.8011ZM83.6193 107L73.3466 91.7955L79.8011 84.9545L94.9602 107H83.6193ZM113.523 107.682C109.932 107.682 106.841 106.955 104.25 105.5C101.674 104.03 99.6894 101.955 98.2955 99.2727C96.9015 96.5758 96.2045 93.3864 96.2045 89.7045C96.2045 86.1136 96.9015 82.9621 98.2955 80.25C99.6894 77.5379 101.652 75.4242 104.182 73.9091C106.727 72.3939 109.712 71.6364 113.136 71.6364C115.439 71.6364 117.583 72.0076 119.568 72.75C121.568 73.4773 123.311 74.5758 124.795 76.0455C126.295 77.5152 127.462 79.3636 128.295 81.5909C129.129 83.803 129.545 86.3939 129.545 89.3636V92.0227H100.068V86.0227H120.432C120.432 84.6288 120.129 83.3939 119.523 82.3182C118.917 81.2424 118.076 80.4015 117 79.7955C115.939 79.1742 114.705 78.8636 113.295 78.8636C111.826 78.8636 110.523 79.2045 109.386 79.8864C108.265 80.553 107.386 81.4545 106.75 82.5909C106.114 83.7121 105.788 84.9621 105.773 86.3409V92.0455C105.773 93.7727 106.091 95.2652 106.727 96.5227C107.379 97.7803 108.295 98.75 109.477 99.4318C110.659 100.114 112.061 100.455 113.682 100.455C114.758 100.455 115.742 100.303 116.636 100C117.53 99.697 118.295 99.2424 118.932 98.6364C119.568 98.0303 120.053 97.2879 120.386 96.4091L129.341 97C128.886 99.1515 127.955 101.03 126.545 102.636C125.152 104.227 123.348 105.47 121.136 106.364C118.939 107.242 116.402 107.682 113.523 107.682ZM135.864 120.091V72.0909H145.409V77.9545H145.841C146.265 77.0152 146.879 76.0606 147.682 75.0909C148.5 74.1061 149.561 73.2879 150.864 72.6364C152.182 71.9697 153.818 71.6364 155.773 71.6364C158.318 71.6364 160.667 72.303 162.818 73.6364C164.97 74.9545 166.689 76.947 167.977 79.6136C169.265 82.2652 169.909 85.5909 169.909 89.5909C169.909 93.4848 169.28 96.7727 168.023 99.4545C166.78 102.121 165.083 104.144 162.932 105.523C160.795 106.886 158.402 107.568 155.75 107.568C153.871 107.568 152.273 107.258 150.955 106.636C149.652 106.015 148.583 105.235 147.75 104.295C146.917 103.341 146.28 102.379 145.841 101.409H145.545V120.091H135.864ZM145.341 89.5455C145.341 91.6212 145.629 93.4318 146.205 94.9773C146.78 96.5227 147.614 97.7273 148.705 98.5909C149.795 99.4394 151.121 99.8636 152.682 99.8636C154.258 99.8636 155.591 99.4318 156.682 98.5682C157.773 97.6894 158.598 96.4773 159.159 94.9318C159.735 93.3712 160.023 91.5758 160.023 89.5455C160.023 87.5303 159.742 85.7576 159.182 84.2273C158.621 82.697 157.795 81.5 156.705 80.6364C155.614 79.7727 154.273 79.3409 152.682 79.3409C151.106 79.3409 149.773 79.7576 148.682 80.5909C147.606 81.4242 146.78 82.6061 146.205 84.1364C145.629 85.6667 145.341 87.4697 145.341 89.5455ZM251.523 107.682C247.932 107.682 244.841 106.955 242.25 105.5C239.674 104.03 237.689 101.955 236.295 99.2727C234.902 96.5758 234.205 93.3864 234.205 89.7045C234.205 86.1136 234.902 82.9621 236.295 80.25C237.689 77.5379 239.652 75.4242 242.182 73.9091C244.727 72.3939 247.712 71.6364 251.136 71.6364C253.439 71.6364 255.583 72.0076 257.568 72.75C259.568 73.4773 261.311 74.5758 262.795 76.0455C264.295 77.5152 265.462 79.3636 266.295 81.5909C267.129 83.803 267.545 86.3939 267.545 89.3636V92.0227H238.068V86.0227H258.432C258.432 84.6288 258.129 83.3939 257.523 82.3182C256.917 81.2424 256.076 80.4015 255 79.7955C253.939 79.1742 252.705 78.8636 251.295 78.8636C249.826 78.8636 248.523 79.2045 247.386 79.8864C246.265 80.553 245.386 81.4545 244.75 82.5909C244.114 83.7121 243.788 84.9621 243.773 86.3409V92.0455C243.773 93.7727 244.091 95.2652 244.727 96.5227C245.379 97.7803 246.295 98.75 247.477 99.4318C248.659 100.114 250.061 100.455 251.682 100.455C252.758 100.455 253.742 100.303 254.636 100C255.53 99.697 256.295 99.2424 256.932 98.6364C257.568 98.0303 258.053 97.2879 258.386 96.4091L267.341 97C266.886 99.1515 265.955 101.03 264.545 102.636C263.152 104.227 261.348 105.47 259.136 106.364C256.939 107.242 254.402 107.682 251.523 107.682ZM247.432 67.5909L252.25 57.25H261.205L254.273 67.5909H247.432ZM36.5455 184H20.0455V137.455H36.6818C41.3636 137.455 45.3939 138.386 48.7727 140.25C52.1515 142.098 54.75 144.758 56.5682 148.227C58.4015 151.697 59.3182 155.848 59.3182 160.682C59.3182 165.53 58.4015 169.697 56.5682 173.182C54.75 176.667 52.1364 179.341 48.7273 181.205C45.3333 183.068 41.2727 184 36.5455 184ZM29.8864 175.568H36.1364C39.0455 175.568 41.4924 175.053 43.4773 174.023C45.4773 172.977 46.9773 171.364 47.9773 169.182C48.9924 166.985 49.5 164.152 49.5 160.682C49.5 157.242 48.9924 154.432 47.9773 152.25C46.9773 150.068 45.4848 148.462 43.5 147.432C41.5152 146.402 39.0682 145.886 36.1591 145.886H29.8864V175.568ZM82.3352 184.682C78.7443 184.682 75.6534 183.955 73.0625 182.5C70.4867 181.03 68.5019 178.955 67.108 176.273C65.714 173.576 65.017 170.386 65.017 166.705C65.017 163.114 65.714 159.962 67.108 157.25C68.5019 154.538 70.464 152.424 72.9943 150.909C75.5398 149.394 78.5246 148.636 81.9489 148.636C84.2519 148.636 86.3958 149.008 88.3807 149.75C90.3807 150.477 92.1231 151.576 93.608 153.045C95.108 154.515 96.2746 156.364 97.108 158.591C97.9413 160.803 98.358 163.394 98.358 166.364V169.023H68.8807V163.023H89.2443C89.2443 161.629 88.9413 160.394 88.3352 159.318C87.7292 158.242 86.8883 157.402 85.8125 156.795C84.7519 156.174 83.517 155.864 82.108 155.864C80.6383 155.864 79.3352 156.205 78.1989 156.886C77.0777 157.553 76.1989 158.455 75.5625 159.591C74.9261 160.712 74.6004 161.962 74.5852 163.341V169.045C74.5852 170.773 74.9034 172.265 75.5398 173.523C76.1913 174.78 77.108 175.75 78.2898 176.432C79.4716 177.114 80.8731 177.455 82.4943 177.455C83.5701 177.455 84.5549 177.303 85.4489 177C86.3428 176.697 87.108 176.242 87.7443 175.636C88.3807 175.03 88.8655 174.288 89.1989 173.409L98.1534 174C97.6989 176.152 96.767 178.03 95.358 179.636C93.964 181.227 92.161 182.47 89.9489 183.364C87.7519 184.242 85.214 184.682 82.3352 184.682ZM136.284 149.091L124.08 184H113.17L100.966 149.091H111.193L118.443 174.068H118.807L126.034 149.091H136.284ZM156.023 184.682C152.432 184.682 149.341 183.955 146.75 182.5C144.174 181.03 142.189 178.955 140.795 176.273C139.402 173.576 138.705 170.386 138.705 166.705C138.705 163.114 139.402 159.962 140.795 157.25C142.189 154.538 144.152 152.424 146.682 150.909C149.227 149.394 152.212 148.636 155.636 148.636C157.939 148.636 160.083 149.008 162.068 149.75C164.068 150.477 165.811 151.576 167.295 153.045C168.795 154.515 169.962 156.364 170.795 158.591C171.629 160.803 172.045 163.394 172.045 166.364V169.023H142.568V163.023H162.932C162.932 161.629 162.629 160.394 162.023 159.318C161.417 158.242 160.576 157.402 159.5 156.795C158.439 156.174 157.205 155.864 155.795 155.864C154.326 155.864 153.023 156.205 151.886 156.886C150.765 157.553 149.886 158.455 149.25 159.591C148.614 160.712 148.288 161.962 148.273 163.341V169.045C148.273 170.773 148.591 172.265 149.227 173.523C149.879 174.78 150.795 175.75 151.977 176.432C153.159 177.114 154.561 177.455 156.182 177.455C157.258 177.455 158.242 177.303 159.136 177C160.03 176.697 160.795 176.242 161.432 175.636C162.068 175.03 162.553 174.288 162.886 173.409L171.841 174C171.386 176.152 170.455 178.03 169.045 179.636C167.652 181.227 165.848 182.47 163.636 183.364C161.439 184.242 158.902 184.682 156.023 184.682Z" fill="black"/>
<path d="M188.045 137.455V184H178.364V137.455H188.045ZM211.574 184.682C208.044 184.682 204.991 183.932 202.415 182.432C199.854 180.917 197.877 178.811 196.483 176.114C195.089 173.402 194.392 170.258 194.392 166.682C194.392 163.076 195.089 159.924 196.483 157.227C197.877 154.515 199.854 152.409 202.415 150.909C204.991 149.394 208.044 148.636 211.574 148.636C215.104 148.636 218.15 149.394 220.71 150.909C223.286 152.409 225.271 154.515 226.665 157.227C228.059 159.924 228.756 163.076 228.756 166.682C228.756 170.258 228.059 173.402 226.665 176.114C225.271 178.811 223.286 180.917 220.71 182.432C218.15 183.932 215.104 184.682 211.574 184.682ZM211.619 177.182C213.225 177.182 214.566 176.727 215.642 175.818C216.718 174.894 217.528 173.636 218.074 172.045C218.634 170.455 218.915 168.644 218.915 166.614C218.915 164.583 218.634 162.773 218.074 161.182C217.528 159.591 216.718 158.333 215.642 157.409C214.566 156.485 213.225 156.023 211.619 156.023C209.998 156.023 208.634 156.485 207.528 157.409C206.438 158.333 205.612 159.591 205.051 161.182C204.506 162.773 204.233 164.583 204.233 166.614C204.233 168.644 204.506 170.455 205.051 172.045C205.612 173.636 206.438 174.894 207.528 175.818C208.634 176.727 209.998 177.182 211.619 177.182ZM235.051 197.091V149.091H244.597V154.955H245.028C245.453 154.015 246.066 153.061 246.869 152.091C247.688 151.106 248.748 150.288 250.051 149.636C251.369 148.97 253.006 148.636 254.96 148.636C257.506 148.636 259.854 149.303 262.006 150.636C264.157 151.955 265.877 153.947 267.165 156.614C268.453 159.265 269.097 162.591 269.097 166.591C269.097 170.485 268.468 173.773 267.21 176.455C265.968 179.121 264.271 181.144 262.119 182.523C259.983 183.886 257.589 184.568 254.938 184.568C253.059 184.568 251.46 184.258 250.142 183.636C248.839 183.015 247.771 182.235 246.938 181.295C246.104 180.341 245.468 179.379 245.028 178.409H244.733V197.091H235.051ZM244.528 166.545C244.528 168.621 244.816 170.432 245.392 171.977C245.968 173.523 246.801 174.727 247.892 175.591C248.983 176.439 250.309 176.864 251.869 176.864C253.445 176.864 254.778 176.432 255.869 175.568C256.96 174.689 257.786 173.477 258.347 171.932C258.922 170.371 259.21 168.576 259.21 166.545C259.21 164.53 258.93 162.758 258.369 161.227C257.809 159.697 256.983 158.5 255.892 157.636C254.801 156.773 253.46 156.341 251.869 156.341C250.294 156.341 248.96 156.758 247.869 157.591C246.794 158.424 245.968 159.606 245.392 161.136C244.816 162.667 244.528 164.47 244.528 166.545ZM291.46 184.682C287.869 184.682 284.778 183.955 282.188 182.5C279.612 181.03 277.627 178.955 276.233 176.273C274.839 173.576 274.142 170.386 274.142 166.705C274.142 163.114 274.839 159.962 276.233 157.25C277.627 154.538 279.589 152.424 282.119 150.909C284.665 149.394 287.65 148.636 291.074 148.636C293.377 148.636 295.521 149.008 297.506 149.75C299.506 150.477 301.248 151.576 302.733 153.045C304.233 154.515 305.4 156.364 306.233 158.591C307.066 160.803 307.483 163.394 307.483 166.364V169.023H278.006V163.023H298.369C298.369 161.629 298.066 160.394 297.46 159.318C296.854 158.242 296.013 157.402 294.938 156.795C293.877 156.174 292.642 155.864 291.233 155.864C289.763 155.864 288.46 156.205 287.324 156.886C286.203 157.553 285.324 158.455 284.688 159.591C284.051 160.712 283.725 161.962 283.71 163.341V169.045C283.71 170.773 284.028 172.265 284.665 173.523C285.316 174.78 286.233 175.75 287.415 176.432C288.597 177.114 289.998 177.455 291.619 177.455C292.695 177.455 293.68 177.303 294.574 177C295.468 176.697 296.233 176.242 296.869 175.636C297.506 175.03 297.991 174.288 298.324 173.409L307.278 174C306.824 176.152 305.892 178.03 304.483 179.636C303.089 181.227 301.286 182.47 299.074 183.364C296.877 184.242 294.339 184.682 291.46 184.682ZM313.801 184V149.091H323.188V155.182H323.551C324.188 153.015 325.256 151.379 326.756 150.273C328.256 149.152 329.983 148.591 331.938 148.591C332.422 148.591 332.945 148.621 333.506 148.682C334.066 148.742 334.559 148.826 334.983 148.932V157.523C334.528 157.386 333.9 157.265 333.097 157.159C332.294 157.053 331.559 157 330.892 157C329.468 157 328.195 157.311 327.074 157.932C325.968 158.538 325.089 159.386 324.438 160.477C323.801 161.568 323.483 162.826 323.483 164.25V184H313.801Z" fill="#7C4848"/>
<path d="M227.48 51.2391C226.773 50.8006 225.956 50.4701 225.077 50.2668C224.198 50.0634 223.273 49.9911 222.356 50.054C221.439 50.1169 220.548 50.3138 219.734 50.6333C218.919 50.9528 218.198 51.3888 217.61 51.9162L182.61 83.1662C181.58 84.0981 181.018 85.2671 181.018 86.4735C181.018 87.6799 181.58 88.8488 182.61 89.7808L216.42 121.031C217.079 121.635 217.911 122.122 218.856 122.455C219.801 122.789 220.834 122.961 221.88 122.958C223.205 122.961 224.503 122.685 225.625 122.161C226.747 121.637 227.646 120.887 228.218 119.998C228.79 119.109 229.011 118.117 228.856 117.138C228.7 116.16 228.175 115.234 227.34 114.468L197.03 86.4995L228.39 58.5829C228.979 58.0566 229.423 57.4489 229.697 56.7947C229.97 56.1406 230.067 55.4527 229.983 54.7705C229.898 54.0883 229.634 53.4253 229.204 52.8193C228.775 52.2133 228.189 51.6763 227.48 51.2391V51.2391Z" fill="#7C4848"/>
<path d="M319.46 83.2187L286 51.9687C285.422 51.4337 284.708 50.9889 283.899 50.6599C283.089 50.3308 282.2 50.1241 281.283 50.0515C280.366 49.9789 279.439 50.0419 278.554 50.2368C277.67 50.4318 276.846 50.7549 276.13 51.1875C275.411 51.6173 274.813 52.1486 274.371 52.7509C273.929 53.3532 273.651 54.0145 273.553 54.697C273.456 55.3794 273.54 56.0695 273.802 56.7275C274.064 57.3855 274.499 57.9985 275.08 58.5312L304.97 86.5L273.61 114.469C273.021 114.995 272.576 115.603 272.303 116.257C272.03 116.911 271.933 117.599 272.017 118.281C272.102 118.963 272.366 119.626 272.796 120.232C273.225 120.838 273.811 121.375 274.52 121.812C275.789 122.57 277.373 122.975 279 122.958C280.028 122.96 281.044 122.792 281.976 122.468C282.908 122.144 283.732 121.671 284.39 121.083L319.39 89.8333C320.429 88.9074 321.005 87.7418 321.017 86.5354C321.03 85.329 320.48 84.1567 319.46 83.2187V83.2187Z" fill="#7C4848"/>
<defs>
<filter id="filter0_b_2_44" x="-4" y="5" width="365" height="237" filterUnits="userSpaceOnUse" color-interpolation-filters="sRGB">
<feFlood flood-opacity="0" result="BackgroundImageFix"/>
<feGaussianBlur in="BackgroundImage" stdDeviation="2"/>
<feComposite in2="SourceAlpha" operator="in" result="effect1_backgroundBlur_2_44"/>
<feBlend mode="normal" in="SourceGraphic" in2="effect1_backgroundBlur_2_44" result="shape"/>
</filter>
</defs>
</svg>
