<svg width="317" height="141" viewBox="0 0 317 141" fill="none" xmlns="http://www.w3.org/2000/svg">
<path d="M27.2955 16.8409C27.1136 15.0076 26.3333 13.5833 24.9545 12.5682C23.5758 11.553 21.7045 11.0455 19.3409 11.0455C17.7348 11.0455 16.3788 11.2727 15.2727 11.7273C14.1667 12.1667 13.3182 12.7803 12.7273 13.5682C12.1515 14.3561 11.8636 15.25 11.8636 16.25C11.8333 17.0833 12.0076 17.8106 12.3864 18.4318C12.7803 19.053 13.3182 19.5909 14 20.0455C14.6818 20.4848 15.4697 20.8712 16.3636 21.2045C17.2576 21.5227 18.2121 21.7955 19.2273 22.0227L23.4091 23.0227C25.4394 23.4773 27.303 24.0833 29 24.8409C30.697 25.5985 32.1667 26.5303 33.4091 27.6364C34.6515 28.7424 35.6136 30.0455 36.2955 31.5455C36.9924 33.0455 37.3485 34.7652 37.3636 36.7045C37.3485 39.553 36.6212 42.0227 35.1818 44.1136C33.7576 46.1894 31.697 47.803 29 48.9545C26.3182 50.0909 23.0833 50.6591 19.2955 50.6591C15.5379 50.6591 12.2652 50.0833 9.47727 48.9318C6.70455 47.7803 4.53788 46.0758 2.97727 43.8182C1.43182 41.5455 0.621212 38.7348 0.545455 35.3864H10.0682C10.1742 36.947 10.6212 38.25 11.4091 39.2955C12.2121 40.3258 13.2803 41.1061 14.6136 41.6364C15.9621 42.1515 17.4848 42.4091 19.1818 42.4091C20.8485 42.4091 22.2955 42.1667 23.5227 41.6818C24.7652 41.197 25.7273 40.5227 26.4091 39.6591C27.0909 38.7955 27.4318 37.803 27.4318 36.6818C27.4318 35.6364 27.1212 34.7576 26.5 34.0455C25.8939 33.3333 25 32.7273 23.8182 32.2273C22.6515 31.7273 21.2197 31.2727 19.5227 30.8636L14.4545 29.5909C10.5303 28.6364 7.43182 27.1439 5.15909 25.1136C2.88636 23.0833 1.75758 20.3485 1.77273 16.9091C1.75758 14.0909 2.50758 11.6288 4.02273 9.52273C5.55303 7.41667 7.65152 5.77273 10.3182 4.59091C12.9848 3.40909 16.0152 2.81818 19.4091 2.81818C22.8636 2.81818 25.8788 3.40909 28.4545 4.59091C31.0455 5.77273 33.0606 7.41667 34.5 9.52273C35.9394 11.6288 36.6818 14.0682 36.7273 16.8409H27.2955ZM52.5739 39.9545L52.5966 28.3409H54.0057L65.1875 15.0909H76.3011L61.2784 32.6364H58.983L52.5739 39.9545ZM43.8011 50V3.45454H53.483V50H43.8011ZM65.6193 50L55.3466 34.7955L61.8011 27.9545L76.9602 50H65.6193ZM95.5227 50.6818C91.9318 50.6818 88.8409 49.9545 86.25 48.5C83.6742 47.0303 81.6894 44.9545 80.2955 42.2727C78.9015 39.5758 78.2045 36.3864 78.2045 32.7045C78.2045 29.1136 78.9015 25.9621 80.2955 23.25C81.6894 20.5379 83.6515 18.4242 86.1818 16.9091C88.7273 15.3939 91.7121 14.6364 95.1364 14.6364C97.4394 14.6364 99.5833 15.0076 101.568 15.75C103.568 16.4773 105.311 17.5758 106.795 19.0455C108.295 20.5152 109.462 22.3636 110.295 24.5909C111.129 26.803 111.545 29.3939 111.545 32.3636V35.0227H82.0682V29.0227H102.432C102.432 27.6288 102.129 26.3939 101.523 25.3182C100.917 24.2424 100.076 23.4015 99 22.7955C97.9394 22.1742 96.7045 21.8636 95.2955 21.8636C93.8258 21.8636 92.5227 22.2045 91.3864 22.8864C90.2652 23.553 89.3864 24.4545 88.75 25.5909C88.1136 26.7121 87.7879 27.9621 87.7727 29.3409V35.0455C87.7727 36.7727 88.0909 38.2652 88.7273 39.5227C89.3788 40.7803 90.2955 41.75 91.4773 42.4318C92.6591 43.1136 94.0606 43.4545 95.6818 43.4545C96.7576 43.4545 97.7424 43.303 98.6364 43C99.5303 42.697 100.295 42.2424 100.932 41.6364C101.568 41.0303 102.053 40.2879 102.386 39.4091L111.341 40C110.886 42.1515 109.955 44.0303 108.545 45.6364C107.152 47.2273 105.348 48.4697 103.136 49.3636C100.939 50.2424 98.4015 50.6818 95.5227 50.6818ZM117.864 63.0909V15.0909H127.409V20.9545H127.841C128.265 20.0152 128.879 19.0606 129.682 18.0909C130.5 17.1061 131.561 16.2879 132.864 15.6364C134.182 14.9697 135.818 14.6364 137.773 14.6364C140.318 14.6364 142.667 15.303 144.818 16.6364C146.97 17.9545 148.689 19.947 149.977 22.6136C151.265 25.2652 151.909 28.5909 151.909 32.5909C151.909 36.4848 151.28 39.7727 150.023 42.4545C148.78 45.1212 147.083 47.1439 144.932 48.5227C142.795 49.8864 140.402 50.5682 137.75 50.5682C135.871 50.5682 134.273 50.2576 132.955 49.6364C131.652 49.0152 130.583 48.2348 129.75 47.2955C128.917 46.3409 128.28 45.3788 127.841 44.4091H127.545V63.0909H117.864ZM127.341 32.5455C127.341 34.6212 127.629 36.4318 128.205 37.9773C128.78 39.5227 129.614 40.7273 130.705 41.5909C131.795 42.4394 133.121 42.8636 134.682 42.8636C136.258 42.8636 137.591 42.4318 138.682 41.5682C139.773 40.6894 140.598 39.4773 141.159 37.9318C141.735 36.3712 142.023 34.5758 142.023 32.5455C142.023 30.5303 141.742 28.7576 141.182 27.2273C140.621 25.697 139.795 24.5 138.705 23.6364C137.614 22.7727 136.273 22.3409 134.682 22.3409C133.106 22.3409 131.773 22.7576 130.682 23.5909C129.606 24.4242 128.78 25.6061 128.205 27.1364C127.629 28.6667 127.341 30.4697 127.341 32.5455ZM189.085 50.6818C185.494 50.6818 182.403 49.9545 179.812 48.5C177.237 47.0303 175.252 44.9545 173.858 42.2727C172.464 39.5758 171.767 36.3864 171.767 32.7045C171.767 29.1136 172.464 25.9621 173.858 23.25C175.252 20.5379 177.214 18.4242 179.744 16.9091C182.29 15.3939 185.275 14.6364 188.699 14.6364C191.002 14.6364 193.146 15.0076 195.131 15.75C197.131 16.4773 198.873 17.5758 200.358 19.0455C201.858 20.5152 203.025 22.3636 203.858 24.5909C204.691 26.803 205.108 29.3939 205.108 32.3636V35.0227H175.631V29.0227H195.994C195.994 27.6288 195.691 26.3939 195.085 25.3182C194.479 24.2424 193.638 23.4015 192.562 22.7955C191.502 22.1742 190.267 21.8636 188.858 21.8636C187.388 21.8636 186.085 22.2045 184.949 22.8864C183.828 23.553 182.949 24.4545 182.312 25.5909C181.676 26.7121 181.35 27.9621 181.335 29.3409V35.0455C181.335 36.7727 181.653 38.2652 182.29 39.5227C182.941 40.7803 183.858 41.75 185.04 42.4318C186.222 43.1136 187.623 43.4545 189.244 43.4545C190.32 43.4545 191.305 43.303 192.199 43C193.093 42.697 193.858 42.2424 194.494 41.6364C195.131 41.0303 195.616 40.2879 195.949 39.4091L204.903 40C204.449 42.1515 203.517 44.0303 202.108 45.6364C200.714 47.2273 198.911 48.4697 196.699 49.3636C194.502 50.2424 191.964 50.6818 189.085 50.6818ZM184.994 10.5909L189.812 0.25H198.767L191.835 10.5909H184.994ZM18.5455 127H2.04545V80.4545H18.6818C23.3636 80.4545 27.3939 81.3864 30.7727 83.25C34.1515 85.0985 36.75 87.7576 38.5682 91.2273C40.4015 94.697 41.3182 98.8485 41.3182 103.682C41.3182 108.53 40.4015 112.697 38.5682 116.182C36.75 119.667 34.1364 122.341 30.7273 124.205C27.3333 126.068 23.2727 127 18.5455 127ZM11.8864 118.568H18.1364C21.0455 118.568 23.4924 118.053 25.4773 117.023C27.4773 115.977 28.9773 114.364 29.9773 112.182C30.9924 109.985 31.5 107.152 31.5 103.682C31.5 100.242 30.9924 97.4318 29.9773 95.25C28.9773 93.0682 27.4848 91.4621 25.5 90.4318C23.5152 89.4015 21.0682 88.8864 18.1591 88.8864H11.8864V118.568ZM64.3352 127.682C60.7443 127.682 57.6534 126.955 55.0625 125.5C52.4867 124.03 50.5019 121.955 49.108 119.273C47.714 116.576 47.017 113.386 47.017 109.705C47.017 106.114 47.714 102.962 49.108 100.25C50.5019 97.5379 52.464 95.4242 54.9943 93.9091C57.5398 92.3939 60.5246 91.6364 63.9489 91.6364C66.2519 91.6364 68.3958 92.0076 70.3807 92.75C72.3807 93.4773 74.1231 94.5758 75.608 96.0455C77.108 97.5152 78.2746 99.3636 79.108 101.591C79.9413 103.803 80.358 106.394 80.358 109.364V112.023H50.8807V106.023H71.2443C71.2443 104.629 70.9413 103.394 70.3352 102.318C69.7292 101.242 68.8883 100.402 67.8125 99.7955C66.7519 99.1742 65.517 98.8636 64.108 98.8636C62.6383 98.8636 61.3352 99.2045 60.1989 99.8864C59.0777 100.553 58.1989 101.455 57.5625 102.591C56.9261 103.712 56.6004 104.962 56.5852 106.341V112.045C56.5852 113.773 56.9034 115.265 57.5398 116.523C58.1913 117.78 59.108 118.75 60.2898 119.432C61.4716 120.114 62.8731 120.455 64.4943 120.455C65.5701 120.455 66.5549 120.303 67.4489 120C68.3428 119.697 69.108 119.242 69.7443 118.636C70.3807 118.03 70.8655 117.288 71.1989 116.409L80.1534 117C79.6989 119.152 78.767 121.03 77.358 122.636C75.964 124.227 74.161 125.47 71.9489 126.364C69.7519 127.242 67.214 127.682 64.3352 127.682ZM118.284 92.0909L106.08 127H95.1705L82.9659 92.0909H93.1932L100.443 117.068H100.807L108.034 92.0909H118.284ZM138.023 127.682C134.432 127.682 131.341 126.955 128.75 125.5C126.174 124.03 124.189 121.955 122.795 119.273C121.402 116.576 120.705 113.386 120.705 109.705C120.705 106.114 121.402 102.962 122.795 100.25C124.189 97.5379 126.152 95.4242 128.682 93.9091C131.227 92.3939 134.212 91.6364 137.636 91.6364C139.939 91.6364 142.083 92.0076 144.068 92.75C146.068 93.4773 147.811 94.5758 149.295 96.0455C150.795 97.5152 151.962 99.3636 152.795 101.591C153.629 103.803 154.045 106.394 154.045 109.364V112.023H124.568V106.023H144.932C144.932 104.629 144.629 103.394 144.023 102.318C143.417 101.242 142.576 100.402 141.5 99.7955C140.439 99.1742 139.205 98.8636 137.795 98.8636C136.326 98.8636 135.023 99.2045 133.886 99.8864C132.765 100.553 131.886 101.455 131.25 102.591C130.614 103.712 130.288 104.962 130.273 106.341V112.045C130.273 113.773 130.591 115.265 131.227 116.523C131.879 117.78 132.795 118.75 133.977 119.432C135.159 120.114 136.561 120.455 138.182 120.455C139.258 120.455 140.242 120.303 141.136 120C142.03 119.697 142.795 119.242 143.432 118.636C144.068 118.03 144.553 117.288 144.886 116.409L153.841 117C153.386 119.152 152.455 121.03 151.045 122.636C149.652 124.227 147.848 125.47 145.636 126.364C143.439 127.242 140.902 127.682 138.023 127.682ZM170.045 80.4545V127H160.364V80.4545H170.045ZM193.574 127.682C190.044 127.682 186.991 126.932 184.415 125.432C181.854 123.917 179.877 121.811 178.483 119.114C177.089 116.402 176.392 113.258 176.392 109.682C176.392 106.076 177.089 102.924 178.483 100.227C179.877 97.5152 181.854 95.4091 184.415 93.9091C186.991 92.3939 190.044 91.6364 193.574 91.6364C197.104 91.6364 200.15 92.3939 202.71 93.9091C205.286 95.4091 207.271 97.5152 208.665 100.227C210.059 102.924 210.756 106.076 210.756 109.682C210.756 113.258 210.059 116.402 208.665 119.114C207.271 121.811 205.286 123.917 202.71 125.432C200.15 126.932 197.104 127.682 193.574 127.682ZM193.619 120.182C195.225 120.182 196.566 119.727 197.642 118.818C198.718 117.894 199.528 116.636 200.074 115.045C200.634 113.455 200.915 111.644 200.915 109.614C200.915 107.583 200.634 105.773 200.074 104.182C199.528 102.591 198.718 101.333 197.642 100.409C196.566 99.4848 195.225 99.0227 193.619 99.0227C191.998 99.0227 190.634 99.4848 189.528 100.409C188.438 101.333 187.612 102.591 187.051 104.182C186.506 105.773 186.233 107.583 186.233 109.614C186.233 111.644 186.506 113.455 187.051 115.045C187.612 116.636 188.438 117.894 189.528 118.818C190.634 119.727 191.998 120.182 193.619 120.182ZM217.051 140.091V92.0909H226.597V97.9545H227.028C227.453 97.0152 228.066 96.0606 228.869 95.0909C229.688 94.1061 230.748 93.2879 232.051 92.6364C233.369 91.9697 235.006 91.6364 236.96 91.6364C239.506 91.6364 241.854 92.303 244.006 93.6364C246.157 94.9545 247.877 96.947 249.165 99.6136C250.453 102.265 251.097 105.591 251.097 109.591C251.097 113.485 250.468 116.773 249.21 119.455C247.968 122.121 246.271 124.144 244.119 125.523C241.983 126.886 239.589 127.568 236.938 127.568C235.059 127.568 233.46 127.258 232.142 126.636C230.839 126.015 229.771 125.235 228.938 124.295C228.104 123.341 227.468 122.379 227.028 121.409H226.733V140.091H217.051ZM226.528 109.545C226.528 111.621 226.816 113.432 227.392 114.977C227.968 116.523 228.801 117.727 229.892 118.591C230.983 119.439 232.309 119.864 233.869 119.864C235.445 119.864 236.778 119.432 237.869 118.568C238.96 117.689 239.786 116.477 240.347 114.932C240.922 113.371 241.21 111.576 241.21 109.545C241.21 107.53 240.93 105.758 240.369 104.227C239.809 102.697 238.983 101.5 237.892 100.636C236.801 99.7727 235.46 99.3409 233.869 99.3409C232.294 99.3409 230.96 99.7576 229.869 100.591C228.794 101.424 227.968 102.606 227.392 104.136C226.816 105.667 226.528 107.47 226.528 109.545ZM273.46 127.682C269.869 127.682 266.778 126.955 264.188 125.5C261.612 124.03 259.627 121.955 258.233 119.273C256.839 116.576 256.142 113.386 256.142 109.705C256.142 106.114 256.839 102.962 258.233 100.25C259.627 97.5379 261.589 95.4242 264.119 93.9091C266.665 92.3939 269.65 91.6364 273.074 91.6364C275.377 91.6364 277.521 92.0076 279.506 92.75C281.506 93.4773 283.248 94.5758 284.733 96.0455C286.233 97.5152 287.4 99.3636 288.233 101.591C289.066 103.803 289.483 106.394 289.483 109.364V112.023H260.006V106.023H280.369C280.369 104.629 280.066 103.394 279.46 102.318C278.854 101.242 278.013 100.402 276.938 99.7955C275.877 99.1742 274.642 98.8636 273.233 98.8636C271.763 98.8636 270.46 99.2045 269.324 99.8864C268.203 100.553 267.324 101.455 266.688 102.591C266.051 103.712 265.725 104.962 265.71 106.341V112.045C265.71 113.773 266.028 115.265 266.665 116.523C267.316 117.78 268.233 118.75 269.415 119.432C270.597 120.114 271.998 120.455 273.619 120.455C274.695 120.455 275.68 120.303 276.574 120C277.468 119.697 278.233 119.242 278.869 118.636C279.506 118.03 279.991 117.288 280.324 116.409L289.278 117C288.824 119.152 287.892 121.03 286.483 122.636C285.089 124.227 283.286 125.47 281.074 126.364C278.877 127.242 276.339 127.682 273.46 127.682ZM295.801 127V92.0909H305.188V98.1818H305.551C306.188 96.0152 307.256 94.3788 308.756 93.2727C310.256 92.1515 311.983 91.5909 313.938 91.5909C314.422 91.5909 314.945 91.6212 315.506 91.6818C316.066 91.7424 316.559 91.8258 316.983 91.9318V100.523C316.528 100.386 315.9 100.265 315.097 100.159C314.294 100.053 313.559 100 312.892 100C311.468 100 310.195 100.311 309.074 100.932C307.968 101.538 307.089 102.386 306.438 103.477C305.801 104.568 305.483 105.826 305.483 107.25V127H295.801Z" fill="black"/>
</svg>
